<svg width="262" height="25" viewBox="0 0 262 25" fill="currentColor" xmlns="http://www.w3.org/2000/svg">
    <path d="M7.38198 0.919213C2.10914 0.919213 0 3.78384 0 7.69651C0 10.9804 1.4764 14.5087 7.80381 14.5087H13.3227C16.2404 14.5087 17.0489 15.9061 17.0489 17.4432C17.0489 19.155 16.0295 20.3777 13.7797 20.3777H0.421829V24.5H13.6391C19.0526 24.5 21.1968 21.5655 21.1968 17.583C21.1968 14.1943 19.6853 10.631 13.2173 10.631H7.6632C4.88618 10.631 4.14797 9.26855 4.14797 7.83625C4.14797 6.19432 5.09709 5.04149 7.24137 5.04149H19.4041V0.919213H7.38198ZM35.5038 0.919213C28.614 0.919213 24.7824 4.83188 24.7824 12.762C24.7824 20.6572 28.5788 24.5 35.5038 24.5H38.7378C45.6628 24.5 49.4593 20.6572 49.4593 12.762C49.4593 4.83188 45.6277 0.919213 38.7378 0.919213H35.5038ZM38.7378 5.04149C43.3076 5.04149 45.2762 7.34716 45.2762 12.7271C45.2762 18.1419 43.3076 20.3777 38.7378 20.3777H35.5038C30.8989 20.3777 28.9303 18.1419 28.9303 12.762C28.9303 7.34716 30.934 5.04149 35.5038 5.04149H38.7378ZM54.0994 0.919213V16.3603C54.0994 21.0764 56.56 24.5 62.8523 24.5H72.3083V20.3777H63.0984C59.3722 20.3777 58.2473 18.5961 58.2473 16.3253V0.919213H54.0994ZM86.088 5.53057C86.334 4.97161 86.7207 4.72707 87.2831 4.72707C87.8456 4.72707 88.2323 4.97161 88.4432 5.53057L95.6494 24.5H100.254L92.2396 3.5393C91.396 1.33843 89.779 0.5 87.3183 0.5C84.8225 0.5 83.2055 1.33843 82.3267 3.5393L73.9956 24.5H78.5654L86.088 5.53057ZM106.699 0.919213C105.042 0.919213 103.699 2.26236 103.699 3.91921V5.04149H116.706C118.991 5.04149 120.01 6.4738 120.01 8.15065C120.01 9.82751 119.061 11.4345 116.706 11.4345H107.461C104.859 11.4345 103.734 12.5175 103.734 15.1725V24.5H107.882V15.976C107.882 15.5568 108.093 15.3821 108.48 15.3821H114.667L120.08 24.5H124.685L119.166 15.0677C122.787 14.0546 124.193 10.9105 124.193 7.97598C124.193 4.20306 121.908 0.919213 116.565 0.919213H106.699ZM133.223 0.919213C131.887 0.919213 131.254 1.54803 131.254 2.84061V22.5786C131.254 23.8712 131.887 24.5 133.223 24.5H143.768C149.357 24.5 151.713 21.7751 151.713 18.0022C151.713 15.2773 150.447 13.5306 148.197 12.6223C150.412 11.7489 151.607 10.107 151.607 7.38209C151.607 3.5393 149.252 0.919213 143.663 0.919213H133.223ZM135.332 14.2991H143.874C146.299 14.2991 147.53 15.3472 147.53 17.3384C147.53 19.2598 146.37 20.4127 143.874 20.4127H135.789C135.507 20.4127 135.332 20.3079 135.332 20.0284V14.2991ZM135.332 5.39083C135.332 5.11136 135.507 4.97162 135.789 4.97162H143.803C146.334 4.97162 147.424 6.19432 147.424 8.04585C147.424 9.96725 146.229 10.8755 143.768 10.8755H135.332V5.39083ZM159.458 0.919213C157.801 0.919213 156.458 2.26236 156.458 3.91921V5.04149H169.465C171.749 5.04149 172.769 6.4738 172.769 8.15065C172.769 9.82751 171.82 11.4345 169.465 11.4345H160.22C157.618 11.4345 156.493 12.5175 156.493 15.1725V24.5H160.641V15.976C160.641 15.5568 160.852 15.3821 161.239 15.3821H167.426L172.839 24.5H177.444L171.925 15.0677C175.546 14.0546 176.952 10.9105 176.952 7.97598C176.952 4.20306 174.667 0.919213 169.324 0.919213H159.458ZM191.505 5.53057C191.751 4.97161 192.138 4.72707 192.7 4.72707C193.263 4.72707 193.649 4.97161 193.86 5.53057L201.067 24.5H205.671L197.657 3.5393C196.813 1.33843 195.196 0.5 192.735 0.5C190.24 0.5 188.623 1.33843 187.744 3.5393L179.413 24.5H183.982L191.505 5.53057ZM215.479 0.919213C210.206 0.919213 208.097 3.78384 208.097 7.69651C208.097 10.9804 209.573 14.5087 215.901 14.5087H221.42C224.337 14.5087 225.146 15.9061 225.146 17.4432C225.146 19.155 224.126 20.3777 221.877 20.3777H208.519V24.5H221.736C227.15 24.5 229.294 21.5655 229.294 17.583C229.294 14.1943 227.782 10.631 221.314 10.631H215.76C212.983 10.631 212.245 9.26855 212.245 7.83625C212.245 6.19432 213.194 5.04149 215.338 5.04149H227.501V0.919213H215.479ZM233.899 0.919213V24.5H238.047V0.919213H233.899ZM243.53 0.919213V16.3603C243.53 21.0764 245.991 24.5 252.283 24.5H261.739V20.3777H252.529C248.803 20.3777 247.678 18.5961 247.678 16.3253V0.919213H243.53Z"/>
</svg>
